<?xml version="1.0" encoding="UTF-8" standalone="no"?>
<svg
   xmlns:dc="http://purl.org/dc/elements/1.1/"
   xmlns:cc="http://creativecommons.org/ns#"
   xmlns:rdf="http://www.w3.org/1999/02/22-rdf-syntax-ns#"
   xmlns:svg="http://www.w3.org/2000/svg"
   xmlns="http://www.w3.org/2000/svg"
   xmlns:sodipodi="http://sodipodi.sourceforge.net/DTD/sodipodi-0.dtd"
   xmlns:inkscape="http://www.inkscape.org/namespaces/inkscape"
   width="107.592mm"
   height="34.917175mm"
   viewBox="0 0 107.592 34.917175"
   version="1.1"
   id="svg2994"
   inkscape:version="1.0.2-2 (e86c870879, 2021-01-15)"
   sodipodi:docname="logo_mdm_n.svg"
   inkscape:export-filename="C:\Users\Ronald\Desktop\logo_mdm.png"
   inkscape:export-xdpi="96"
   inkscape:export-ydpi="96">
  <defs
     id="defs2988" />
  <sodipodi:namedview
     id="base"
     pagecolor="#ffffff"
     bordercolor="#666666"
     borderopacity="1.0"
     inkscape:pageopacity="0.0"
     inkscape:pageshadow="2"
     inkscape:zoom="0.92092245"
     inkscape:cx="163.11881"
     inkscape:cy="85.626133"
     inkscape:document-units="mm"
     inkscape:current-layer="g1196"
     inkscape:document-rotation="0"
     showgrid="false"
     inkscape:window-width="1440"
     inkscape:window-height="837"
     inkscape:window-x="-8"
     inkscape:window-y="-8"
     inkscape:window-maximized="1">
    <inkscape:grid
       type="xygrid"
       id="grid1168"
       originx="-98.611834"
       originy="-164.1028" />
  </sodipodi:namedview>
  <metadata
     id="metadata2991">
    <rdf:RDF>
      <cc:Work
         rdf:about="">
        <dc:format>image/svg+xml</dc:format>
        <dc:type
           rdf:resource="http://purl.org/dc/dcmitype/StillImage" />
        <dc:title></dc:title>
      </cc:Work>
    </rdf:RDF>
  </metadata>
  <g
     inkscape:label="Layer 1"
     inkscape:groupmode="layer"
     id="layer1"
     transform="translate(-49.305919,-82.051401)">
    <g
       id="g3052">
      <g
         id="g1196"
         transform="translate(0,0.28730251)">
        <path
           style="fill:#0d2f7d;stroke:none;stroke-width:0.264583"
           d="m 49.741662,106.89167 h 0.26459 c 0,-9.39959 6.08621,-18.83648 16.40416,-19.30427 2.16059,-0.0979 4.40293,0.29105 6.35,1.26233 1.0414,0.51938 2.50323,2.12196 3.71449,1.99284 1.76159,-0.18785 3.6949,-2.71833 5.01676,-3.79465 -3.95869,-6.30714 -13.54349,-6.25078 -19.57916,-3.55097 -9.13369,4.08596 -14.1727,13.69086 -12.17084,23.39472 m 38.36459,-0.79375 5.13212,-0.27199 0.79163,-2.90301 0.955411,-8.20208 h 0.26459 c 0.11747,2.73473 0.5969,5.47131 0.8165,8.20208 0.0611,0.76041 0.0145,2.38839 0.66596,2.90301 0.74586,0.58922 3.403857,0.50456 4.082777,-0.15214 2.05529,-1.98861 4.09655,-7.65836 4.75351,-10.42379 h 0.26458 l -2.11667,10.58334 5.55625,0.26458 3.175,-18.52083 -7.04056,0.15954 -1.78885,3.01546 -3.606,7.9375 h -0.264587 l -1.05833,-11.1125 -7.213071,0.27199 -1.18745,4.75509 -2.18281,13.49375 m 44.449998,0 h 5.55625 L 139.43542,95.25 H 139.7 c 0.3003,2.37623 0.63712,4.75351 0.80036,7.14375 0.0582,0.85487 -0.0182,2.59001 0.52996,3.28004 0.63077,0.79375 3.58987,0.66278 4.27488,0 2.10873,-2.0402 3.77005,-7.38849 4.71355,-10.1592 h 0.26458 l -2.11666,10.58333 h 5.55625 l 3.175,-18.52083 -7.04057,0.15954 -1.78223,3.01546 -3.61262,7.9375 h -0.26458 l -1.05834,-11.1125 -7.21201,0.27199 -1.18189,4.75509 -2.18943,13.49375 M 83.872912,92.075 c 2.19737,9.2292 -7.97639,19.23759 -16.93333,19.01587 -2.15265,-0.0532 -4.48707,-0.71437 -6.35,-1.7862 -0.86651,-0.49848 -1.68646,-1.53432 -2.64583,-1.80393 -1.15121,-0.32306 -5.25595,2.9247 -5.20409,4.17804 0.0439,1.06415 1.506,1.96585 2.29367,2.47623 2.76622,1.79255 5.73458,2.53127 8.99583,2.52624 9.16067,-0.014 17.5477,-6.89477 19.95594,-15.61041 0.67521,-2.44422 1.57294,-6.80562 -0.11219,-8.99584 m -17.72708,3.61236 c -4.71435,1.47849 -3.54515,8.88233 1.5875,7.07311 4.47119,-1.57613 3.60177,-8.70083 -1.5875,-7.07311 m 0.27622,1.83912 c 2.41883,-0.93372 3.09272,2.44607 1.03505,3.36761 -2.43231,1.08929 -3.2295,-2.52042 -1.03505,-3.36761 m 30.415451,11.21727 0.26458,0.26459 -0.26458,-0.26459 m -7.672921,0.52917 0.26458,0.26458 -0.26458,-0.26458 m 12.435418,0 0.26458,0.26458 -0.26458,-0.26458 m 1.85208,0 0.26458,0.26458 -0.26458,-0.26458 m 5.02708,0 0.26459,0.26458 -0.26459,-0.26458 m -15.081248,1.5875 0.26459,0.26458 z"
           id="path903-0"
           sodipodi:nodetypes="ccccccccccccccscccccccccccccccccccccccccccccccccccccccccccccccsccccccccccccccccccc" />
        <path
           style="fill:#e8b11c;stroke-width:0.264583"
           d="m 64.26098,107.64395 c -0.7276,-0.11178 -1.62057,-0.32502 -1.98437,-0.47386 -0.76904,-0.31464 -2.576,-1.80054 -2.38125,-1.95816 0.0728,-0.0589 0.63168,-0.49197 1.24204,-0.96242 l 1.10976,-0.85536 1.42518,0.80433 c 1.24306,0.70153 1.68355,0.80432 3.44707,0.80432 1.62479,0 2.30523,-0.13415 3.46447,-0.68303 2.22248,-1.05229 3.98699,-3.08411 4.80653,-5.534682 0.0973,-0.29104 0.22826,-0.39326 0.29094,-0.22714 0.0627,0.16611 -0.13938,1.05408 -0.44903,1.973252 -1.2058,3.57937 -4.46227,6.40987 -8.18723,7.1163 -0.77062,0.14614 -1.41464,0.25086 -1.43116,0.23271 -0.0165,-0.0181 -0.62534,-0.12447 -1.35295,-0.23626 z m 48.55105,-2.20712 c 0,-0.36521 0.17079,-1.47592 0.37953,-2.46824 0.34237,-1.62758 1.62396,-8.853982 2.29041,-12.914752 0.45405,-2.76659 -0.0575,-2.51476 5.08695,-2.50425 6.5141,0.0133 8.49841,0.52515 10.32951,2.66438 1.10001,1.28512 1.37227,2.55446 1.15094,5.36609 -0.3844,4.883322 -2.99945,8.452022 -7.1988,9.824092 -1.30785,0.42731 -2.50801,0.53436 -6.81302,0.60769 l -5.22552,0.089 z m 10.12881,-3.99154 c 0.46827,-0.21038 1.09334,-0.59734 1.38904,-0.8599 1.5475,-1.374062 2.50329,-5.852942 1.58187,-7.412772 -0.54633,-0.92487 -1.68605,-1.39899 -3.36297,-1.39899 -1.07185,0 -1.23673,0.0809 -1.4834,0.7276 -0.24409,0.63999 -1.04516,4.96157 -1.52038,8.202092 l -0.1649,1.12448 h 1.35467 c 0.74507,0 1.7378,-0.17213 2.20607,-0.38251 z m -57.48923,-0.67583 c -1.56997,-1.569972 0.81026,-4.492752 2.79412,-3.431012 1.27363,0.68162 1.13976,2.60814 -0.23969,3.449272 -1.07035,0.65266 -1.88937,0.64681 -2.55443,-0.0183 z M 58.387,99.299518 c 0.25313,-2.23935 2.33281,-5.39432 4.57268,-6.93695 2.20822,-1.52083 6.09799,-2.1819 8.18047,-1.39027 1.12423,0.42736 2.77812,1.60829 2.77812,1.98366 0,0.17413 -0.47302,0.69674 -1.05117,1.16135 -0.93763,0.7535 -1.11625,0.8083 -1.65365,0.5073 -0.33135,-0.18559 -0.662,-0.39939 -0.73476,-0.47511 -0.74525,-0.77559 -4.15518,-1.05739 -5.8475,-0.48324 -1.66837,0.56602 -3.58121,2.04815 -4.69787,3.64006 -0.60296,0.85958 -1.09812,1.72255 -1.10035,1.9177 -0.002,0.19515 -0.13077,0.53341 -0.28566,0.75169 -0.21191,0.298662 -0.25159,0.131332 -0.16031,-0.67619 z"
           id="path3060-7" />
        <text
           xml:space="preserve"
           style="font-style:normal;font-weight:normal;font-size:5.64444px;line-height:1.25;font-family:sans-serif;fill:#a2a5ab;fill-opacity:1;stroke:none;stroke-width:0.264583"
           x="88.072273"
           y="111.33981"
           id="text1181"><tspan
             sodipodi:role="line"
             id="tspan1179"
             x="88.072273"
             y="111.33981"
             style="font-style:italic;font-variant:normal;font-weight:bold;font-stretch:normal;font-size:5.64444px;font-family:Arial;-inkscape-font-specification:'Arial Bold Italic';fill:#a2a5ab;fill-opacity:1;stroke-width:0.264583">Sistemas</tspan></text>
      </g>
    </g>
  </g>
</svg>
